<?xml version="1.0" encoding="utf-8"?>
<!-- Generator: Adobe Illustrator 28.2.0, SVG Export Plug-In . SVG Version: 6.00 Build 0)  -->
<svg version="1.1" id="Layer_1" xmlns="http://www.w3.org/2000/svg" xmlns:xlink="http://www.w3.org/1999/xlink" x="0px" y="0px"
	 viewBox="0 0 1920 1080" style="enable-background:new 0 0 1920 1080;" xml:space="preserve">
<style type="text/css">
	.st0{fill:#FAA41A;}
</style>
<g>
	<path d="M628.25,1053.39c-0.37,1.7-2.03,2.82-3.74,2.45l-5.14-1.07c-1.7-0.36-2.82-2.01-2.45-3.74l119.8-573.46
		c0.37-1.7,2.03-2.82,3.74-2.45l5.14,1.07c1.7,0.36,2.82,2.01,2.45,3.74L628.25,1053.39L628.25,1053.39z"/>
	<path class="st0" d="M620.04,711.9c0,115.53-102.2,209.16-228.24,209.16c-126.04,0-228.24-93.63-228.24-209.16
		s102.2-209.16,228.24-209.16C517.85,502.73,620.04,596.37,620.04,711.9 M428.59,836.24l-2.48-20.93c-0.24-2,0.63-3.11,2.63-3.36
		c45.65-6.08,100.93-23.99,116.41-73.53c23.85-76.55-53.39-116.6-114.95-120.69c-2.24-0.15-3.94-2-3.89-4.23l1.07-59.57
		c0.15-7.3-7.01-12.51-13.92-10.17c-31.29,10.56-63.41,17.81-96.26,21.85c-1.56,0.19-2.92,1.17-3.6,2.63
		c-2.58,5.69-2.29,11,0.88,15.96c0.97,1.51,2.53,2.48,4.33,2.63c14.31,1.12,37.57-1.22,38.25,18.54
		c1.95,54.75,1.8,109.69-0.44,164.88c-0.15,3.31,2.29,6.18,5.55,6.57c20.54,2.53,41.02,2.48,61.46-0.19
		c1.7-0.24,2.97-1.65,2.97-3.36V645.52c0-1.41,0.68-2.04,2.09-1.95c35.87,2.48,53.58,24.28,56.31,59.03
		c2.19,28.08-2.53,64.48-30.32,75.72c-39.08,15.82-79.91,15.82-122.44-0.05c-39.08-14.55-42.58-88.96-17.62-115.92
		c7.98-8.61,18.35-14.21,31.1-16.79c1.46-0.34,2.19-1.22,2.14-2.73l-0.49-21.8c-0.05-1.65-0.88-2.38-2.53-2.19
		c-21.41,2.58-41.8,8.81-61.12,18.78c-58.54,30.17-65.8,109.01-9.93,146.14c23.31,15.52,50.42,24.67,81.27,27.54
		c1.9,0.19,2.73,1.22,2.58,3.11l-1.85,21.36c-0.15,1.61-1.27,2.97-2.82,3.41c-10.03,2.77-20.29,4.23-30.81,4.48
		c-9.78,0.19-12.31,4.48-10.56,13.53c0.78,4.04,4.28,6.91,8.37,6.91l148.04-0.29c0.83,0,1.61-0.44,2.04-1.17
		c3.16-5.16,3.55-10.41,1.17-15.82c-0.54-1.22-1.7-2.04-3.02-2.19l-35.33-4.19C430.64,840.23,428.84,838.48,428.59,836.24
		L428.59,836.24z"/>
	<path d="M817.43,720.56c11.87,19.71,38.88,20.34,56.4,3.6c1.27-1.17,3.21-1.17,4.43,0.05l12.7,12.7c1.31,1.31,1.31,2.63-0.1,3.94
		c-25.84,23.94-62.97,26.47-88.81,2.48c-21.95-20.44-23.99-60.64-3.11-83.12c24.48-26.38,63.7-26.08,91.2-2.92
		c1.61,1.31,1.7,2.82,0.39,4.43l-11.97,14.45c-1.02,1.27-2.92,1.36-4.04,0.19C841.47,642.36,793.92,681.48,817.43,720.56
		L817.43,720.56z"/>
	<path d="M1024.4,700.62c-0.29,33.32-28.61,60.04-63.25,59.75c-34.66-0.29-62.5-27.54-62.2-60.84
		c0.29-33.32,28.61-60.04,63.25-59.75C996.86,640.07,1024.7,667.32,1024.4,700.62 M962.14,737.01
		c19.49-0.29,35.06-17.03,34.76-37.38c-0.29-20.39-16.3-36.69-35.79-36.39c-19.49,0.29-35.06,17.03-34.76,37.38
		C926.64,721,942.65,737.3,962.14,737.01L962.14,737.01z"/>
	<path d="M1106.75,710.05c0.78,1.56,3.02,1.56,3.8,0l32.9-66.23c0.63-1.31,1.7-2,3.21-2h24.53c1.61,0,2.43,0.83,2.43,2.43V755.6
		c0,2-1.02,3.02-3.07,3.02h-16.5c-2.48,0-3.7-1.22-3.7-3.7l0.44-70.18c0-1.65-2.19-2.14-2.92-0.68l-28.08,57.23
		c-4.57,9.34-17.91,9.34-22.48,0l-27.25-55.38c-0.88-1.75-3.5-1.17-3.5,0.78v68.86c0,2.04-1.02,3.07-3.02,3.07h-17.03
		c-2.04,0-3.07-1.02-3.07-3.07V644.89c0-2.04,1.02-3.07,3.02-3.07h23.12c2.04,0,3.5,0.92,4.43,2.73L1106.75,710.05L1106.75,710.05z"
		/>
	<path d="M1201.55,754.53l0.1-109.21c0-2,0.97-3.02,2.97-3.07c40.44-1.56,101.66-8.32,91.69,50.71
		c-5.79,34.5-38.54,30.61-65.99,31.78c-1.9,0.1-3.41,1.7-3.36,3.6l0.63,26.62c0.05,1.95-1.51,3.55-3.46,3.6l-18.44,0.1
		C1202.91,758.67,1201.55,757.3,1201.55,754.53 M1227.05,667.91l0.1,30.76c0,2.24,1.8,4.09,4.09,4.09l20.88-0.05
		c11.14,0,20.15-8.27,20.15-18.44v-2.14c0-10.17-9.1-18.35-20.24-18.35l-20.88,0.05C1228.9,663.82,1227.05,665.62,1227.05,667.91
		L1227.05,667.91z"/>
	<path d="M1417.23,713.55c0.1,60.83-99.96,64.58-102.83,0.34c-1.02-23.21-1.27-46.43-0.68-69.64c0.05-1.61,0.88-2.43,2.48-2.43
		h21.41c1.65,0,2.48,0.83,2.48,2.48c0.39,23.21,0.39,46.28,0.05,69.3c-0.39,28.13,49.69,37.18,49.98-6.67
		c0.15-20.78,0.49-41.56,0.92-62.24c0.05-1.9,1.02-2.87,2.92-2.87h20.29c1.61,0,2.43,0.83,2.48,2.48
		C1417.09,667.47,1417.23,690.53,1417.23,713.55L1417.23,713.55z"/>
	<path d="M1464,663.77l-29.64-0.1c-1.56,0-2.82-1.27-2.82-2.82v-16.21c0-1.56,1.27-2.82,2.82-2.82h91.69c1.56,0,2.82,1.27,2.82,2.82
		v16.25c0,1.56-1.27,2.82-2.82,2.82h-29.64c-1.56,0-2.82,1.27-2.82,2.82v89.25c0,1.56-1.27,2.82-2.82,2.82h-21.12
		c-1.56,0-2.82-1.27-2.82-2.82v-89.2C1466.82,665.03,1465.56,663.77,1464,663.77L1464,663.77z"/>
	<path d="M1573.26,736.72h59.03c1.65,0,3.02,1.36,3.02,3.02v15.86c0,1.65-1.36,3.02-3.02,3.02h-84.58c-1.65,0-3.02-1.36-3.02-3.02
		V644.84c0-1.65,1.36-3.02,3.02-3.02h81.56c1.65,0,3.02,1.36,3.02,3.02v15.86c0,1.65-1.36,3.02-3.02,3.02h-56.01
		c-1.65,0-3.02,1.36-3.02,3.02v19.52c0,1.65,1.36,3.02,3.02,3.02h51.2c1.65,0,3.02,1.36,3.02,3.02l-0.15,15.23
		c0,1.65-1.36,3.02-3.02,2.97l-51-0.73c-1.7-0.05-3.07,1.31-3.07,3.02v20.93C1570.24,735.36,1571.6,736.72,1573.26,736.72
		L1573.26,736.72z"/>
	<path d="M1736.14,718.27c-1.65,0.83-2.19,2.92-1.17,4.43l21.02,31.78c1.17,1.75-0.1,4.14-2.19,4.14h-22.24
		c-1.8,0-3.16-0.78-4.04-2.38l-16.59-29.39c-0.78-1.36-2.24-2.24-3.8-2.24l-21.32-0.1c-1.61,0-2.43,0.83-2.43,2.48v29.2
		c0,1.65-0.83,2.48-2.43,2.48l-21.17-0.1c-1.75,0-3.16-1.41-3.16-3.16V645.37c0-2.29,1.12-3.41,3.41-3.46
		c22.78-0.34,55.97-3.36,74.12,5.16C1759.94,659.24,1764.66,704.26,1736.14,718.27 M1682.9,667.71l-0.19,30.66
		c0,2.34,1.85,4.23,4.19,4.23l23.26,0.1c11.34,0.1,20.59-8.37,20.63-18.78v-1.17c0.05-10.46-9.1-18.98-20.44-19.08l-23.26-0.1
		C1684.8,663.57,1682.9,665.42,1682.9,667.71L1682.9,667.71z"/>
	<path d="M755.04,888.55c14.7,10.22,40.59,23.02,53.82,10.46c4.82-4.57,3.65-12.51-2.24-15.52c-18.88-9.64-53-9.98-56.6-37.62
		c-6.33-48.23,60.39-43.51,86.48-27.74c1.41,0.83,1.75,2,1.07,3.5l-7.49,17.03c-0.73,1.61-2.68,2.19-4.14,1.27
		c-12.7-8.32-26.67-11.58-41.9-9.83c-2.97,0.34-5.4,2.38-6.28,5.21c-7.74,25.21,70.91,13.72,60.83,62
		c-8.95,43.07-70.03,30.46-94.22,12.46c-1.31-0.92-1.61-2.14-0.92-3.65l7.4-16.4C751.59,888.12,753.58,887.53,755.04,888.55
		L755.04,888.55z"/>
	<path d="M976.46,867.57c-0.38,33.3-28.81,59.97-63.46,59.53c-34.64-0.43-62.38-27.78-61.99-61.06
		c0.38-33.3,28.81-59.97,63.46-59.53C949.12,806.94,976.86,834.29,976.46,867.57 M915.13,903.72c19.54-0.66,34.77-17.74,34.07-38.15
		c-0.71-20.37-17.11-36.38-36.65-35.68c-19.54,0.66-34.77,17.74-34.07,38.15C879.19,888.41,895.59,904.42,915.13,903.72
		L915.13,903.72z"/>
	<path d="M1011.51,917.07c-26.57-15.33-35.77-54.6-19.66-80.93c21.51-35.19,66.53-37.33,98.11-12.6c1.56,1.22,1.75,2.58,0.54,4.14
		l-11.53,14.79c-1.17,1.51-2.48,1.65-3.94,0.34c-23.36-21.02-65.16-13.53-64.19,22.24c1.02,37.52,36.94,47.74,64.09,25.6
		c1.12-0.92,2.77-0.83,3.75,0.24l11.87,13.09c0.92,1.07,0.88,2.68-0.19,3.6C1065.77,930.12,1039.49,933.28,1011.51,917.07
		L1011.51,917.07z"/>
	<path d="M1135.9,921.84c0,1.9-1.56,3.46-3.46,3.46h-19.86c-1.9,0-3.46-1.56-3.46-3.46V811.96c0-1.9,1.56-3.46,3.46-3.46h19.86
		c1.9,0,3.46,1.56,3.46,3.46V921.84L1135.9,921.84z"/>
	<path d="M1191.96,903.59l59.42-0.29c1.41,0,2.58,1.17,2.58,2.58l-0.15,16.89c0,1.41-1.12,2.53-2.53,2.53h-84.87
		c-1.41,0-2.53-1.12-2.53-2.53V811.03c0-1.41,1.12-2.53,2.53-2.53h83.27c1.36,0,2.48,1.07,2.53,2.43l0.68,16.84
		c0.05,1.41-1.12,2.63-2.53,2.63l-58.35-0.05c-1.41,0-2.53,1.12-2.53,2.53l-0.15,20.54c0,1.41,1.12,2.53,2.53,2.53h51
		c1.41,0,2.53,1.12,2.53,2.53v16.84c0,1.41-1.12,2.53-2.53,2.53h-50.9c-1.41,0-2.53,1.12-2.53,2.53v20.68
		C1189.43,902.47,1190.55,903.59,1191.96,903.59L1191.96,903.59z"/>
	<path d="M1267.59,808.5h91.3c1.36,0,2.48,1.12,2.53,2.48l0.24,16.84c0.05,1.41-1.12,2.58-2.53,2.58h-30.08
		c-1.41,0-2.53,1.12-2.53,2.53l0.54,89.84c0,1.41-1.12,2.53-2.53,2.53h-21.85c-1.41,0-2.53-1.12-2.53-2.53v-89.84
		c0-1.41-1.12-2.53-2.53-2.53H1267c-1.46,0-2.58-1.17-2.53-2.63l0.58-16.84C1265.1,809.57,1266.22,808.5,1267.59,808.5
		L1267.59,808.5z"/>
	<path d="M1439.18,877.41c-7.79,14.7-5.16,28.42-5.26,44.43c-0.05,1.9-1.61,3.46-3.5,3.46h-20c-1.75,0-3.16-1.41-3.16-3.16
		l-0.05-32.12c0-1.36-0.34-2.68-1.02-3.89l-40.34-74.65c-1.07-1.95-0.49-2.92,1.75-2.92h20.63c1.75,0,3.07,0.78,3.94,2.29
		l26.23,46.18c0.97,1.7,3.41,1.7,4.38,0l25.26-45.89c0.92-1.61,2.58-2.63,4.43-2.63h20.34c1.56,0,2.53,1.65,1.8,3.02
		C1462.69,833.47,1450.86,855.41,1439.18,877.41L1439.18,877.41z"/>
	<g>
		<path class="st0" d="M528.34,937v-25h-3.67v-5.94h13.54V912h-3.67v25H528.34z"/>
		<path class="st0" d="M539.92,937v-30.94h9.42l2.6,18.86l2.58-18.86h9.51V937h-5.66v-22.29L554.83,937h-5.55l-3.76-22.29V937
			H539.92z"/>
	</g>
	<g>
		<path class="st0" d="M758.89,982.44c-0.2,6.2-0.2,18.3-0.2,18.4c0,3.7,0,5,0.1,8.3l0.1,6.9c-0.2,5.6-0.3,11.7-5,16.5
			c-4.4,4.3-10.7,5.6-16.9,5.6c-6.4,0-13-1.6-17.2-6.4c-4.4-5-4.6-11.8-4.8-18.6l-0.1-7.8c0-10.8,0-12-0.2-22.7l0.6-0.6
			c4.1,0,6.1-0.1,10.2-0.3l0.6,0.7c-0.4,11.1-0.5,23.1-0.5,24.5c0,4.5,0.1,7.9,0.3,10.7c0.3,4.3,1,13.1,11.8,13.1
			c2,0,7.8-0.2,10.5-5.7c1.4-2.8,1.6-6.5,1.6-14.4c0-2.6-0.1-19.2-0.7-27.9l0.6-0.7c3.8,0,5.4-0.1,8.6-0.3L758.89,982.44z"/>
		<path class="st0" d="M819.59,982.44c-0.3,8.9-0.3,16.8-0.3,23.3c0,10.2,0.1,20.4,0.3,30.5l-0.6,0.7c-5.4,0.1-5.7,0.1-10.8,0.3
			l-0.7-0.5c-0.2-0.4-0.4-0.8-0.6-1.2c-3.2-5.8-4.8-8.7-8.3-14.9l-14.3-26l0.6,22.1c0.1,6.8,0.2,12.1,0.6,19.5l-0.5,0.7
			c-4.4,0.1-4.8,0.1-9.1,0.3l-0.5-0.7c0.2-5.7,0.4-11.4,0.4-20.4c0-21.2-0.3-28.5-0.5-33.4l0.5-0.7c5.1,0,5.9,0,11.5-0.3l0.7,0.6
			c3.6,6.8,7.3,13.3,9.4,17.1l13.3,24.1l-0.6-23.2c-0.2-11.2-0.3-12.5-0.6-17.6l0.5-0.7c3.9,0,5.1,0,9.1-0.3L819.59,982.44z"/>
		<path class="st0" d="M847.29,982.34c-0.2,5.5-0.4,11.8-0.4,25.2c0,14.1,0.2,20.6,0.6,28.8l-0.5,0.7c-4.9,0-5.8,0-10.2,0.2
			l-0.6-0.6c0.3-5,0.4-9.7,0.4-18.6c0-11.8,0-23.9-0.6-35.3l0.5-0.7c3.3,0,5.6-0.1,10.2-0.3L847.29,982.34z"/>
		<path class="st0" d="M886.89,1037.04c-6.2,0-6.7,0-12.8,0.2l-0.7-0.6c-2.5-8.6-5-17.3-7.7-25.9c-2.6-8.2-5.2-16.4-7.8-24.6
			l-1.1-3.4l0.5-0.7c3.3,0,5.8-0.1,10.8-0.3l0.6,0.6c2.8,10.8,3.7,14.2,5.5,20.3l7.3,26.3l7.9-27.9c0.5-2,1-3.9,1.6-5.8
			c0.4-1.8,2.8-10.6,3.4-12.6l0.6-0.6c3.2,0,5.2-0.1,9.2-0.3l0.5,0.7c-1.3,4-7.4,23.3-8.8,27.7c-2.5,7.7-5.1,15.3-7.4,23
			c-0.3,1.1-0.7,2.2-1,3.3L886.89,1037.04z"/>
		<path class="st0" d="M949.69,1030.04c-0.2,2.8-0.3,3.1-0.4,6.3l-0.6,0.6c-15.8,0.1-17.5,0.1-34.2,0.3l-0.5-0.7
			c0.5-9.1,0.5-11.6,0.5-33.1c0-11.5-0.2-15.7-0.6-20.7l0.6-0.7c12.9,0,20.1-0.1,34.5-0.3l0.6,0.7c-0.4,2.7-0.5,3.6-0.6,6.7
			l-0.6,0.7c-11.6-0.3-15.5-0.4-23.4-0.4c-0.2,6.7-0.2,8.3-0.2,15.3c9.4,0,10.6,0,22.1-0.2l0.5,0.7c-0.3,2.9-0.3,3.6-0.4,6.6
			l-0.6,0.7c-10.4-0.3-13.4-0.3-21.6-0.3c-0.1,6.5-0.2,9.2-0.1,17.4c10.3,0,13.3,0,24.5-0.4L949.69,1030.04z"/>
		<path class="st0" d="M992.29,1036.94c-2.5-4.4-4.3-7-8.1-12.8c-2.3-3.4-4.5-6.7-6.7-10.1c-2,0.1-2.5,0.1-4.2,0
			c0,1.1,0.1,14.2,0.6,22.3l-0.5,0.7c-4.2,0-5.7,0-10.1,0.2l-0.6-0.6c0.2-5.4,0.3-9.6,0.3-20.3c0-20.4-0.3-26-0.8-33.6l0.6-0.7
			c3.7,0,6.5,0,10.4-0.1h4.7c4.3,0,8.9,0.1,12.3,1.1c6.6,1.9,10.4,7.3,10.4,14.1c0,10.9-9.9,14.5-12.9,15.3
			c1.2,1.6,6.9,9.9,8.2,11.8c3.5,5.2,6.2,8.7,8.9,12.1l-0.5,0.7c-5,0.1-6,0.1-11.3,0.4L992.29,1036.94z M978.09,1006.84
			c3.4-0.2,12-0.7,12-9.5c0-5.5-3.7-7.4-6.9-7.9c-2.6-0.5-6.3-0.4-10-0.3c-0.1,8.7-0.1,9.5,0,17.7H978.09z"/>
		<path class="st0" d="M1043.39,992.74c-2.2-1.5-6.3-4.3-13.2-4.3c-6.2,0-9.2,3.1-9.2,6.8c0,4.3,3.5,6,12.1,10
			c6.6,3.2,14.1,6.8,14.1,16.3c0,8-6.1,16.6-20.3,16.6c-8.3,0-13.8-2.6-15.7-3.5l-0.4-0.8c0.1-1.1,0.2-2.2,0.3-3.3
			c0.1-1.8,0.2-3.6,0.4-5.5l0.8-0.2c2.8,2.4,6.5,5.6,14.1,5.6c8.1,0,10-4.8,10-7.9c0-4.7-3.4-6.7-8.6-9l-3.8-1.8
			c-5.5-2.6-13.2-6.4-13.2-15.6c0-8.8,6.9-15.3,18.8-15.3c6.9,0,12.4,1.9,14.7,2.7l0.5,0.7c-0.4,3.3-0.4,4-0.6,8.1L1043.39,992.74z"
			/>
		<path class="st0" d="M1070.19,982.34c-0.2,5.5-0.4,11.8-0.4,25.2c0,14.1,0.2,20.6,0.6,28.8l-0.5,0.7c-4.9,0-5.8,0-10.2,0.2
			l-0.6-0.6c0.3-5,0.4-9.7,0.4-18.6c0-11.8,0-23.9-0.6-35.3l0.5-0.7c3.3,0,5.6-0.1,10.2-0.3L1070.19,982.34z"/>
		<path class="st0" d="M1119.29,989.54c-4.8-0.1-7.5-0.1-13.5-0.1c-0.2,11.6-0.2,29.4,0.4,46.8l-0.5,0.8c-4.4,0-6.4,0.1-10.4,0.3
			l-0.6-0.7c0.4-10.9,0.5-21.8,0.5-32.7c0-2,0-8.2-0.2-14.5c-5.8,0.1-7.1,0.1-13.8,0.3l-0.5-0.7c0.2-2.7,0.3-4,0.3-6.3l0.5-0.7
			c12.8-0.1,25.5-0.2,38.3-0.3l0.5,0.7c-0.3,2.9-0.3,3.6-0.4,6.5L1119.29,989.54z"/>
		<path class="st0" d="M1153.89,1037.04c-5,0-6.7,0-10.1,0.2l-0.6-0.7c0.1-0.7,0.1-1.3,0.1-2c0.2-3.8,0.2-12.6,0.2-16.7v-3.4
			c-9.1-17.1-12.1-22.3-17.5-31.5l0.3-0.8c1.9-0.1,3.8-0.2,5.6-0.3c1.8-0.1,3.5-0.2,5.3-0.3l0.8,0.4c0.2,0.6,0.5,1.1,0.7,1.7
			c1.4,3.2,2.4,5.2,11,22c2.4-4.6,9.3-18.7,11.3-23.1l0.7-0.5c3.3,0,5.4-0.1,9.7-0.3l0.4,0.8c-2.8,4.9-7.4,12.8-10.2,17.7
			c-3.8,6.6-5.3,9.3-7.4,13.5c-0.1,1.8-0.1,3.5-0.1,6c0,4.1,0.1,10.3,0.4,16.7L1153.89,1037.04z"/>
		<path class="st0" d="M1260.79,1019.84c-3.4,12.9-13.6,18.3-24.9,18.3c-3.5,0-7-0.5-10.3-1.8c-12-4.8-15.2-16.7-15.2-26.8
			c0-17.3,9.7-28.7,26-28.7c15.7,0,25.6,11.1,25.6,29.1C1261.99,1013.24,1261.69,1016.64,1260.79,1019.84z M1243.29,1028.94
			c6.2-3.9,7.7-12.4,7.7-19.2c0-9.9-2.8-21.6-14.7-21.6c-2.2,0-4.7,0.4-7,1.8c-2,1.1-3.6,2.8-4.8,4.8c-2.6,4.5-3,11.6-3,14.4
			c0,12.7,4.9,21.7,14.8,21.7C1238.69,1030.84,1241.19,1030.24,1243.29,1028.94z"/>
		<path class="st0" d="M1305.19,1013.44c-8.6-0.2-12.9-0.3-18.5-0.3c0,5.9,0,16,0.5,23.1l-0.5,0.7c-4.8,0.1-5.4,0.1-10.4,0.3
			l-0.6-0.7c0.5-11.1,0.5-22.6,0.5-33.9c0-10.7-0.2-15.3-0.5-19.9l0.6-0.7h3.6c9.8,0,20.1,0,29.3-0.3l0.5,0.8
			c-0.3,2.9-0.4,3.7-0.5,6.7l-0.6,0.6c-10.7-0.3-13.1-0.3-21.8-0.4c-0.2,7.7-0.2,8.7-0.2,16.3c8.5,0,11.2-0.1,19.3-0.4l0.5,0.7
			c-0.3,3.1-0.3,3.3-0.6,6.7L1305.19,1013.44z"/>
		<path class="st0" d="M1366.69,1013.74c0,1.7,0.1,5.6,0.1,7.1c0,6.4-0.6,16.6-15.1,16.6c-2.8,0-4.6-0.4-6.3-0.8l-0.6-0.9v-6.4
			l0.6-0.6c1.6,0.5,2.8,0.9,4.7,0.9c5.7,0,6-4.3,6.1-7.6c0-1.9,0.1-5.6,0.1-10.3c0-9.7-0.1-19.4-0.6-29l0.5-0.7
			c4.7,0,5.3,0,10.2-0.2l0.6,0.7c-0.4,13.5-0.4,18.2-0.3,24.3V1013.74z"/>
		<path class="st0" d="M1431.29,1019.84c-3.4,12.9-13.6,18.3-24.9,18.3c-3.5,0-7-0.5-10.3-1.8c-12-4.8-15.2-16.7-15.2-26.8
			c0-17.3,9.7-28.7,26-28.7c15.7,0,25.6,11.1,25.6,29.1C1432.49,1013.24,1432.19,1016.64,1431.29,1019.84z M1413.79,1028.94
			c6.2-3.9,7.7-12.4,7.7-19.2c0-9.9-2.8-21.6-14.7-21.6c-2.2,0-4.7,0.4-7,1.8c-2,1.1-3.6,2.8-4.8,4.8c-2.6,4.5-3,11.6-3,14.4
			c0,12.7,4.9,21.7,14.8,21.7C1409.19,1030.84,1411.69,1030.24,1413.79,1028.94z"/>
		<path class="st0" d="M1476.19,1036.94c-2.5-4.4-4.3-7-8.1-12.8c-2.3-3.4-4.5-6.7-6.7-10.1c-2,0.1-2.5,0.1-4.2,0
			c0,1.1,0.1,14.2,0.6,22.3l-0.5,0.7c-4.2,0-5.7,0-10.1,0.2l-0.6-0.6c0.2-5.4,0.3-9.6,0.3-20.3c0-20.4-0.3-26-0.8-33.6l0.6-0.7
			c3.7,0,6.5,0,10.4-0.1h4.7c4.3,0,8.9,0.1,12.3,1.1c6.6,1.9,10.4,7.3,10.4,14.1c0,10.9-9.9,14.5-12.9,15.3
			c1.2,1.6,6.9,9.9,8.2,11.8c3.5,5.2,6.2,8.7,8.9,12.1l-0.5,0.7c-5,0.1-6,0.1-11.3,0.4L1476.19,1036.94z M1461.99,1006.84
			c3.4-0.2,12-0.7,12-9.5c0-5.5-3.7-7.4-6.9-7.9c-2.6-0.5-6.3-0.4-10-0.3c-0.1,8.7-0.1,9.5,0,17.7H1461.99z"/>
		<path class="st0" d="M1499.49,1037.34l-0.5-0.7c0.3-8.9,0.3-17.7,0.3-22c0-19.1-0.3-25.9-0.6-31.9l0.5-0.7l12-0.3h5
			c8.6,0,22,0.4,27.6,14.6c1.3,3.2,2,7,2,11.9c0,12-5,22.7-16.8,26.8c-6.1,2.2-11.1,2.2-23.6,2.2L1499.49,1037.34z M1525.79,1027.54
			c6.4-3.4,9.2-11,9.2-20c0-18.7-13.2-18.7-19-18.7c-2.4,0-4.4,0.1-6.3,0.1c-0.2,5.5-0.2,8-0.2,23.3c0,3.9,0,11.2,0.2,17.6
			C1514.79,1029.94,1521.19,1030.04,1525.79,1027.54z"/>
		<path class="st0" d="M1584.29,983.64c2.4,8.7,5.2,17.2,7.8,25.8c2.7,8.7,5.2,17.5,8.2,26.1c0.1,0.3,0.2,0.5,0.3,0.8l-0.6,0.6
			c-4.6,0-6.5,0.1-10.2,0.3l-0.6-0.6c-1.8-6.8-2.2-8.6-4.4-16.1c-7.7-0.1-9.8-0.1-17.5,0c-2.1,7.3-2.6,9.1-4.3,15.8l-0.6,0.6
			c-3.8,0-5.6,0.1-9.2,0.3l-0.5-0.7c3.4-9.2,4.5-12.4,9.8-28.8c5.2-15.9,5.8-17.7,8.1-25.1l0.6-0.6c3.8,0,6.6-0.1,12.2-0.3l0.6,0.7
			L1584.29,983.64z M1569.49,1013.44c6.1,0.1,7.6,0.1,13.3,0l-6.3-22.6L1569.49,1013.44z"/>
		<path class="st0" d="M1654.19,982.44c-0.3,8.9-0.3,16.8-0.3,23.3c0,10.2,0.1,20.4,0.3,30.5l-0.6,0.7c-5.4,0.1-5.7,0.1-10.8,0.3
			l-0.7-0.5c-0.2-0.4-0.4-0.8-0.6-1.2c-3.2-5.8-4.8-8.7-8.3-14.9l-14.3-26l0.6,22.1c0.1,6.8,0.2,12.1,0.6,19.5l-0.5,0.7
			c-4.4,0.1-4.8,0.1-9.1,0.3l-0.5-0.7c0.2-5.7,0.4-11.4,0.4-20.4c0-21.2-0.3-28.5-0.5-33.4l0.5-0.7c5.1,0,5.9,0,11.5-0.3l0.7,0.6
			c3.6,6.8,7.3,13.3,9.4,17.1l13.3,24.1l-0.6-23.2c-0.2-11.2-0.3-12.5-0.6-17.6l0.5-0.7c3.9,0,5.1,0,9.1-0.3L1654.19,982.44z"/>
	</g>
	<g>
		<path d="M857.24,601.55c-9.16-0.13-11.35,0-21.29,0.39l-0.77-0.77c0.26-16.9,0.39-33.67,0.39-50.57c0-12.38,0-19.48-0.65-39.34
			l0.65-0.77c8.9,0.13,11.61,0.13,21.41-0.39l0.77,0.77c-0.39,11.48-0.52,22.83-0.52,34.18c0,18.71,0.13,37.28,0.77,55.73
			L857.24,601.55z"/>
		<path d="M903.04,561.94v23.48h5.29c14.06-0.26,17.29-0.26,22.96-0.64l0.77,0.77c-0.52,6.71-0.64,8.26-0.9,15.22l-0.77,0.77h-20.64
			c-16.12,0-19.61,0-27.73,0.39l-0.65-0.77c0.26-10.19,0.39-17.42,0.39-34.06c0-18.45-0.13-42.31-0.9-55.98l0.65-0.77
			c16.12,0.13,33.28,0.13,48.37-0.26l0.64,0.64c-0.52,6.19-0.52,7.87-0.77,14.32l-0.77,0.77h-2.32c-3.87,0-7.87-0.13-11.74-0.13
			h-7.48h-4.77c0,9.16,0,11.48,0.13,21.41h5.55c6.71,0,10.71-0.13,19.48-0.39l0.77,0.77c-0.52,6.58-0.52,7.48-0.77,13.8l-0.77,0.77
			c-6.19-0.13-12.38-0.13-18.58-0.13H903.04z"/>
		<path d="M973.34,561.94v23.48h5.29c14.06-0.26,17.29-0.26,22.96-0.64l0.77,0.77c-0.52,6.71-0.64,8.26-0.9,15.22l-0.77,0.77h-20.64
			c-16.12,0-19.61,0-27.73,0.39l-0.64-0.77c0.26-10.19,0.39-17.42,0.39-34.06c0-18.45-0.13-42.31-0.9-55.98l0.65-0.77
			c16.12,0.13,33.28,0.13,48.37-0.26l0.64,0.64c-0.52,6.19-0.52,7.87-0.77,14.32l-0.77,0.77h-2.32c-3.87,0-7.87-0.13-11.74-0.13
			h-7.48h-4.77c0,9.16,0,11.48,0.13,21.41h5.55c6.71,0,10.71-0.13,19.48-0.39l0.77,0.77c-0.52,6.58-0.52,7.48-0.77,13.8l-0.77,0.77
			c-6.19-0.13-12.38-0.13-18.58-0.13H973.34z"/>
		<path d="M1043.64,561.94v23.48h5.29c14.06-0.26,17.29-0.26,22.96-0.64l0.77,0.77c-0.52,6.71-0.64,8.26-0.9,15.22l-0.77,0.77
			h-20.64c-16.12,0-19.61,0-27.73,0.39l-0.64-0.77c0.26-10.19,0.39-17.42,0.39-34.06c0-18.45-0.13-42.31-0.9-55.98l0.65-0.77
			c16.12,0.13,33.28,0.13,48.37-0.26l0.64,0.64c-0.52,6.19-0.52,7.87-0.77,14.32l-0.77,0.77h-2.32c-3.87,0-7.87-0.13-11.74-0.13
			h-7.48h-4.77c0,9.16,0,11.48,0.13,21.41h5.55c6.71,0,10.71-0.13,19.48-0.39l0.77,0.77c-0.52,6.58-0.52,7.48-0.77,13.8l-0.77,0.77
			c-6.19-0.13-12.38-0.13-18.58-0.13H1043.64z"/>
	</g>
</g>
</svg>
